<?xml version="1.0" standalone="no"?>
<!DOCTYPE svg PUBLIC "-//W3C//DTD SVG 20010904//EN"
 "http://www.w3.org/TR/2001/REC-SVG-20010904/DTD/svg10.dtd">
<svg version="1.0" xmlns="http://www.w3.org/2000/svg"
 width="707.000000pt" height="353.000000pt" viewBox="0 0 707.000000 353.000000"
 preserveAspectRatio="xMidYMid meet">

<g transform="translate(0.000000,353.000000) scale(0.100000,-0.100000)"
fill="#000000" stroke="none">
<path d="M5037 2550 c-76 -23 -204 -155 -320 -329 -120 -180 -172 -261 -191
-298 -9 -17 -35 -43 -58 -58 -38 -23 -40 -25 -13 -19 l29 7 -18 -29 c-11 -16
-26 -40 -34 -54 -41 -68 -68 -108 -93 -135 -16 -16 -28 -32 -27 -35 3 -13 -17
-58 -38 -86 -13 -17 -24 -34 -24 -39 0 -4 -16 -32 -36 -62 -21 -32 -33 -60
-30 -70 6 -14 10 -13 32 8 14 13 30 33 37 45 37 68 91 135 104 130 8 -4 21 -6
29 -6 8 0 27 -19 42 -43 63 -99 150 -157 234 -157 46 0 152 44 190 80 33 31
46 25 50 -22 2 -36 7 -44 25 -46 31 -4 92 34 163 102 33 31 61 56 62 56 2 0 3
-22 4 -49 0 -35 8 -60 25 -85 25 -38 45 -48 122 -67 61 -15 216 2 362 38 55
14 147 31 205 38 80 10 93 13 53 14 -73 1 -191 -16 -308 -46 -118 -30 -266
-41 -318 -24 -20 7 -50 28 -68 48 -29 34 -31 40 -27 97 3 45 11 71 31 100 29
41 33 56 17 56 -5 0 -19 9 -30 20 -46 46 -144 4 -252 -109 -196 -204 -335
-235 -451 -99 -92 107 -91 104 -43 114 39 7 111 67 120 100 8 28 -17 54 -52
54 -34 0 -110 -37 -122 -60 -5 -10 -16 -20 -24 -23 -13 -5 41 92 137 245 17
26 48 60 71 75 146 99 163 114 298 247 99 99 203 236 228 301 28 74 -5 101
-93 75z m83 -32 c-1 -32 -35 -100 -93 -188 -61 -91 -321 -329 -415 -379 -20
-11 -20 -10 -2 27 11 21 26 44 34 52 9 7 16 17 16 22 0 13 197 308 224 334 11
12 37 39 56 60 51 57 121 104 158 104 18 0 22 -5 22 -32z m-560 -865 c0 -25
-8 -35 -58 -77 -36 -29 -52 -36 -88 -36 -58 0 -57 16 7 71 57 49 72 57 112 58
19 1 27 -4 27 -16z m654 -32 c10 -16 -27 -71 -91 -135 -33 -33 -68 -65 -76
-71 -8 -5 -25 -17 -38 -26 -39 -27 -69 -33 -69 -14 0 86 240 301 274 246z"/>
<path d="M1933 2370 c-68 -10 -260 -68 -298 -90 -16 -10 -41 -21 -55 -25 -25
-7 -64 -30 -148 -87 -29 -20 -49 -27 -63 -23 -11 4 -53 3 -92 -2 l-72 -8 82
-5 82 -5 -44 -53 c-51 -61 -70 -117 -60 -179 12 -84 123 -130 208 -87 69 36
96 65 114 120 14 46 15 59 3 93 -15 46 -73 98 -127 113 l-35 10 23 24 c12 13
26 24 30 24 5 0 30 12 56 28 80 45 201 89 328 117 260 58 479 7 570 -133 28
-43 30 -53 30 -137 0 -85 -2 -93 -37 -155 -34 -62 -115 -150 -190 -211 -74
-59 -275 -146 -372 -160 -34 -5 -80 -12 -104 -15 -61 -9 -62 -24 -2 -24 82 0
288 46 375 84 108 48 145 71 228 141 203 173 232 411 67 551 -104 88 -293 124
-497 94z m-454 -276 c94 -63 93 -167 -2 -238 -42 -31 -136 -29 -171 3 -21 20
-26 34 -26 76 0 42 6 60 31 96 72 102 97 111 168 63z"/>
<path d="M3795 2111 c-42 -26 -65 -51 -157 -168 -64 -83 -85 -103 -106 -103
-14 0 -75 13 -136 29 -294 78 -447 98 -530 68 -44 -15 -66 -45 -25 -33 81 24
304 9 438 -29 25 -7 73 -18 106 -25 91 -16 145 -32 145 -41 0 -12 -112 -172
-130 -186 -8 -6 -35 -30 -60 -54 -83 -78 -176 -144 -310 -221 -63 -36 -86 -43
-141 -46 -51 -3 -69 0 -82 13 -52 51 -19 175 46 175 36 0 130 61 141 92 11 32
-5 58 -38 58 -57 0 -164 -82 -191 -145 -40 -95 -27 -176 32 -200 42 -18 82
-18 143 -2 57 16 95 36 195 104 118 80 145 100 195 145 25 22 47 41 50 43 3 2
-9 -27 -27 -65 -46 -96 -51 -136 -21 -180 22 -33 27 -35 85 -38 87 -4 143 24
351 176 71 52 81 62 63 62 -8 0 -29 -16 -124 -92 -15 -13 -33 -25 -40 -27 -7
-2 -25 -14 -42 -26 -52 -38 -160 -85 -197 -85 -109 0 -86 127 65 355 66 100
96 137 107 130 4 -2 88 -14 186 -26 132 -16 205 -20 279 -15 185 12 167 21
-42 21 -162 0 -228 4 -299 19 -102 20 -127 31 -106 45 8 4 21 20 30 33 18 27
104 131 151 183 61 67 59 96 -4 56z m-810 -501 c17 -28 -55 -85 -137 -110 -38
-12 -36 4 9 54 50 56 111 83 128 56z"/>
<path d="M4074 1935 c-10 -25 4 -47 28 -43 17 2 24 11 26 31 3 23 0 27 -23 27
-14 0 -28 -7 -31 -15z"/>
<path d="M4320 1810 c-41 -16 -66 -29 -55 -29 22 -1 108 28 141 47 35 21 -8
11 -86 -18z"/>
<path d="M1687 1635 c-16 -19 -40 -50 -51 -69 -26 -43 -114 -169 -142 -205
-42 -53 -84 -145 -84 -186 1 -66 45 -105 120 -105 56 0 226 59 323 112 44 24
91 49 105 57 35 19 146 92 197 130 63 46 105 71 105 61 0 -5 -4 -11 -9 -14
-13 -8 -24 -81 -16 -105 3 -10 19 -24 34 -31 56 -23 144 39 218 154 18 27 34
54 36 59 2 6 16 6 37 -1 19 -6 69 -13 110 -16 l75 -5 -76 13 c-85 15 -139 39
-139 62 0 8 -4 13 -9 9 -13 -7 -24 12 -15 26 4 8 9 7 15 -2 7 -11 9 -10 9 3 0
25 -14 29 -65 18 -51 -11 -84 -33 -186 -122 -37 -32 -71 -58 -76 -58 -5 0 -20
-11 -33 -25 -13 -14 -28 -25 -33 -25 -5 0 -28 -16 -51 -35 -24 -19 -46 -35
-50 -35 -5 0 -21 -10 -38 -21 -72 -52 -245 -136 -338 -165 -81 -26 -169 -31
-188 -12 -21 21 -14 92 13 132 14 20 25 39 25 41 0 6 92 139 101 145 3 3 14
19 23 35 9 17 35 55 57 85 67 91 71 99 65 115 -9 25 -36 17 -69 -20z m814
-105 c30 0 -21 -97 -87 -165 -49 -50 -103 -79 -128 -69 -50 19 43 180 148 256
l41 29 8 -25 c5 -14 13 -26 18 -26z"/>
<path d="M3959 1651 c-28 -11 -121 -100 -115 -110 3 -5 -5 -34 -19 -65 -30
-69 -32 -115 -4 -150 34 -43 85 -36 204 32 34 19 201 151 254 201 19 17 31 35
27 38 -4 4 -23 -9 -44 -29 -38 -38 -141 -124 -202 -169 -64 -48 -139 -80 -178
-77 -35 3 -37 5 -40 40 -3 41 50 159 87 192 12 11 21 24 21 29 0 6 10 21 22
34 23 25 15 46 -13 34z"/>
<path d="M6006 1361 c17 -4 37 -11 45 -15 8 -4 5 0 -5 8 -11 9 -31 16 -45 15
-24 -1 -24 -2 5 -8z"/>
</g>
</svg>
